<svg xmlns="http://www.w3.org/2000/svg" width="500" height="500"><path d="M471.602 212.21l-59.102-9.66a169.499 169.499 0 00-14.11-34.05l34.5-49.172c2.79-3.969 2.31-9.379-1.12-12.816L392.879 67.64a9.993 9.993 0 00-12.91-1.04l-48.43 34.81a167.715 167.715 0 00-34.32-14.27L286.91 28.28a10.007 10.007 0 00-9.85-8.28h-55a9.998 9.998 0 00-9.868 8.39l-9.562 58.54c-12 3.449-23.52 8.18-34.367 14.12l-48.301-34.5a10.005 10.005 0 00-12.89 1.06L68.2 106.48a9.987 9.987 0 00-1.12 12.801l33.991 48.63a169.142 169.142 0 00-14.379 34.6L28.38 212.22c-4.82.8-8.36 4.98-8.36 9.86v55c0 4.85 3.481 9 8.25 9.85l58.31 10.34a168.643 168.643 0 0014.382 34.602L66.55 380c-2.84 3.969-2.39 9.422 1.058 12.89l38.88 38.91c3.433 3.43 8.84 3.91 12.812 1.122l48.7-34.113a168.691 168.691 0 0034.45 14.242l9.76 58.61c.79 4.808 4.962 8.339 9.849 8.339h55c4.851 0 9-3.48 9.84-8.25l10.453-58.898c11.988-3.532 23.476-8.332 34.296-14.352l49.051 34.41c3.98 2.809 9.38 2.32 12.82-1.11l38.88-38.91a10.014 10.014 0 001.042-12.921l-34.98-48.57a167.318 167.318 0 0014.07-34.079l59.18-10.39a10 10 0 008.27-9.852v-55a9.98 9.98 0 00-8.38-9.867zM250 320c-38.66 0-70-31.34-70-70s31.34-70 70-70 70 31.34 70 70-31.34 70-70 70zm0 0" fill="#fff"/></svg>